<svg version="1.1" viewBox="0.0 0.0 755.5196850393701 540.0" fill="none" stroke="none" stroke-linecap="square" stroke-miterlimit="10" xmlns:xlink="http://www.w3.org/1999/xlink" xmlns="http://www.w3.org/2000/svg"><clipPath id="p.0"><path d="m0 0l755.5197 0l0 540.0l-755.5197 0l0 -540.0z" clip-rule="nonzero"/></clipPath><g clip-path="url(#p.0)"><path fill="#ffffff" d="m0 0l755.5197 0l0 540.0l-755.5197 0z" fill-rule="evenodd"/><path fill="#000000" fill-opacity="0.0" d="m0.09213911 0.01212021l755.5329 0l0 539.99396l-755.5329 0z" fill-rule="evenodd"/><path fill="#000000" fill-opacity="0.0" d="m41.476665 39.01312l672.76385 0l0 461.992l-672.76385 0z" fill-rule="evenodd"/><path fill="#000000" d="m127.509964 436.2731l0 -325.51562l87.59375 0l0 25.34375l-59.796875 0l0 275.17188l59.796875 0l0 25.0l-87.59375 0zm500.69403 -325.51562l0 325.51562l-87.59375 0l0 -24.828125l59.796875 0l0 -275.34375l-59.796875 0l0 -25.34375l87.59375 0z" fill-rule="nonzero"/><path fill="#000000" fill-opacity="0.0" d="m41.476665 39.35712l672.76385 0l0 461.30402l-672.76385 0z" fill-rule="evenodd"/><path fill="#000000" d="m299.79245 272.52835l146.75 0l0 14.0625l-146.75 0l0 -14.0625zm22.78125 94.3125q0 3.6875 2.09375 5.875q2.09375 2.171875 6.109375 3.171875l11.0625 2.015625q6.359375 1.671875 6.359375 6.703125q0 2.6875 -1.921875 4.359375q-1.921875 1.671875 -6.28125 1.671875l-74.046875 0q-4.1875 0 -6.203125 -1.671875q-2.015625 -1.671875 -2.015625 -4.359375q0 -5.03125 6.375 -6.703125l11.046875 -2.015625q4.03125 -1.0 6.203125 -3.171875q2.171875 -2.1875 2.171875 -5.875l0 -186.96875q0 -3.6875 -2.171875 -5.859375q-2.171875 -2.1875 -6.203125 -3.1875l-11.046875 -2.015625q-6.375 -1.671875 -6.375 -6.6875q0 -2.859375 2.015625 -4.453125q2.015625 -1.59375 6.203125 -1.59375l74.046875 0q4.359375 0 6.28125 1.59375q1.921875 1.59375 1.921875 4.453125q0 5.015625 -6.359375 6.6875l-11.0625 2.015625q-4.015625 1.0 -6.109375 3.1875q-2.09375 2.171875 -2.09375 5.859375l0 186.96875zm149.60938 0q0 3.6875 2.171875 5.875q2.1875 2.171875 6.03125 3.171875l11.234375 2.015625q6.203125 1.671875 6.203125 6.703125q0 2.6875 -1.9375 4.359375q-1.921875 1.671875 -6.109375 1.671875l-74.21875 0q-4.1875 0 -6.125 -1.671875q-1.921875 -1.671875 -1.921875 -4.359375q0 -5.03125 6.203125 -6.703125l11.21875 -2.015625q4.03125 -1.0 6.125 -3.171875q2.09375 -2.1875 2.09375 -5.875l0 -186.96875q0 -3.6875 -2.09375 -5.859375q-2.09375 -2.1875 -6.125 -3.1875l-11.21875 -2.015625q-6.203125 -1.671875 -6.203125 -6.6875q0 -2.859375 1.921875 -4.453125q1.9375 -1.59375 6.125 -1.59375l74.21875 0q4.1875 0 6.109375 1.59375q1.9375 1.59375 1.9375 4.453125q0 5.015625 -6.203125 6.6875l-11.234375 2.015625q-3.84375 1.0 -6.03125 3.1875q-2.171875 2.171875 -2.171875 5.859375l0 186.96875z" fill-rule="nonzero"/><path fill="#000000" fill-opacity="0.0" d="m0.11711697 78.0304l672.76385 0l0 461.30402l-672.76385 0z" fill-rule="evenodd"/><path fill="#000000" d="m402.33496 198.6079l0 154.14061q0 14.40625 -3.765625 28.734375q-3.765625 14.3125 -12.734375 25.96875q-8.953125 11.640625 -24.203125 18.6875q-15.25 7.03125 -38.03125 7.03125q-16.921875 0 -33.265625 -5.359375q-16.328125 -5.375 -30.0625 -15.59375l12.890625 -19.265625q15.078125 9.390625 27.46875 12.65625q12.40625 3.265625 22.625 3.265625q24.125 0 37.109375 -15.40625q12.984375 -15.421875 12.984375 -42.390625l0 -128.67186l-68.34375 0l0 -23.796875l97.328125 0z" fill-rule="nonzero"/></g></svg>