<svg version="1.1" id="Layer_1" xmlns="http://www.w3.org/2000/svg" xmlns:xlink="http://www.w3.org/1999/xlink" x="0px" y="0px"
	 width="100%" viewBox="0 0 752 528" enable-background="new 0 0 752 528" xml:space="preserve">
<path fill="#000000" opacity="1.000000" stroke="none" 
	d="
M355.292236,429.544891 
	C323.096863,438.338806 293.319366,433.645355 265.398560,416.211182 
	C261.472687,413.759796 260.395050,411.557251 263.614746,407.657928 
	C266.359558,404.333771 268.764465,400.664062 270.870453,396.896088 
	C272.861420,393.333862 274.667358,392.895935 278.255157,395.113037 
	C292.120605,403.681122 307.265869,408.499146 323.633606,408.616058 
	C350.858276,408.810486 369.623291,392.401428 372.541626,365.252228 
	C375.199829,340.522736 373.106506,315.651672 373.655823,290.850647 
	C373.713776,288.234955 372.455536,287.356079 369.988129,287.362640 
	C355.990814,287.399872 341.993011,287.414581 327.996124,287.324341 
	C324.861542,287.304138 323.991974,288.788788 323.999237,291.624969 
	C324.063110,316.620087 324.098480,341.615479 324.057678,366.610626 
	C324.049042,371.892792 326.897369,374.532654 331.648895,375.605774 
	C335.378479,376.448059 339.174835,377.006073 342.885223,377.919189 
	C346.801056,378.882782 349.694366,381.094727 349.196625,385.582550 
	C348.683533,390.209442 345.217194,391.316742 341.210663,391.318146 
	C316.215240,391.327026 291.219818,391.322113 266.224396,391.300476 
	C262.170319,391.296967 258.705353,389.951782 258.242493,385.462280 
	C257.788239,381.055664 260.847137,378.821869 264.723145,377.855774 
	C268.430176,376.931793 272.236664,376.414429 275.966339,375.571838 
	C281.353760,374.354736 283.687042,371.598816 283.689545,366.147583 
	C283.718048,304.491882 283.679199,242.836136 283.743347,181.180511 
	C283.748383,176.326416 281.237518,173.716858 277.050781,172.479721 
	C273.716034,171.494324 270.241364,170.955170 266.805847,170.347824 
	C264.461578,169.933395 262.241974,169.263123 260.443573,167.687714 
	C256.553101,164.279678 257.732178,158.540588 262.619049,156.941101 
	C263.242371,156.737091 263.925781,156.658600 264.585724,156.632797 
	C290.720947,155.610413 316.857544,155.662399 342.992584,156.617477 
	C346.394806,156.741837 348.705536,158.494080 349.204407,161.968170 
	C349.736725,165.675049 347.805664,168.196014 344.441895,169.196045 
	C340.316071,170.422668 336.014008,171.041885 331.830872,172.093765 
	C325.745728,173.623917 324.215271,175.596848 324.077362,181.892487 
	C323.993439,185.723373 324.259796,189.572586 323.984528,193.385818 
	C323.677826,197.633942 325.493866,198.779938 329.524750,198.754898 
	C351.686584,198.617218 373.849792,198.697632 396.012512,198.711334 
	C403.336060,198.715851 403.344604,198.726913 403.346527,206.125046 
	C403.351776,226.454773 403.467804,246.785736 403.256805,267.113251 
	C403.210571,271.566681 404.632111,272.943542 408.984894,272.735931 
	C415.635193,272.418732 422.315338,272.527069 428.975952,272.707642 
	C432.463074,272.802216 433.661835,271.439606 433.653015,268.022064 
	C433.579071,239.360748 433.657898,210.699005 433.580627,182.037689 
	C433.565063,176.261475 431.316681,173.640533 425.585205,172.209564 
	C422.043060,171.325211 418.376343,170.936783 414.838776,170.037704 
	C410.849304,169.023773 407.517181,166.885010 407.910065,162.208374 
	C408.270294,157.920166 411.583374,156.763458 415.429962,156.468750 
	C427.745544,155.525192 440.076202,156.074142 452.396240,156.078568 
	C465.382568,156.083221 478.377350,155.539047 491.361206,156.454376 
	C495.521759,156.747665 498.728241,158.203659 498.908051,162.716217 
	C499.086090,167.184952 495.699768,169.061234 491.953033,170.008270 
	C488.092163,170.984146 484.085571,171.397278 480.244202,172.432983 
	C475.738129,173.647903 473.314880,176.638763 473.317993,181.552307 
	C473.356995,243.208008 473.364960,304.863739 473.325897,366.519409 
	C473.322693,371.597687 476.206573,374.178558 480.553833,375.396912 
	C484.224915,376.425751 488.044586,376.915314 491.784088,377.711334 
	C495.912933,378.590179 499.255005,380.723969 498.878418,385.322327 
	C498.493134,390.026489 494.816772,391.339325 490.539490,391.336365 
	C465.710571,391.319336 440.881683,391.320953 416.052765,391.329437 
	C411.938751,391.330841 408.810638,389.864777 407.936401,385.527405 
	C407.224365,381.994629 410.032654,378.873871 414.798035,377.743896 
	C418.030487,376.977448 421.312714,376.422821 424.566620,375.744446 
	C430.946991,374.414246 433.500610,371.946289 433.539703,365.678253 
	C433.694519,340.850372 433.593597,316.020996 433.646667,291.192291 
	C433.652588,288.424744 432.569489,287.319275 429.783661,287.355194 
	C422.619659,287.447632 415.444366,287.577850 408.291595,287.271790 
	C404.113159,287.093018 403.269867,288.863647 403.290344,292.590729 
	C403.412048,314.752777 403.956085,336.937286 403.177429,359.072662 
	C402.367371,382.101776 395.564087,403.003601 376.707489,418.193726 
	C370.422791,423.256409 363.373657,426.967957 355.292236,429.544891 
M349.499939,272.656036 
	C355.983185,272.656219 362.469513,272.536957 368.948334,272.706207 
	C372.259521,272.792755 373.762970,271.857849 373.720825,268.230133 
	C373.564453,254.766800 373.561981,241.299515 373.715729,227.836182 
	C373.756744,224.246140 372.331329,223.287369 368.989441,223.317062 
	C355.525452,223.436661 342.058899,223.437424 328.595123,223.302109 
	C325.090332,223.266891 323.931091,224.634918 323.960846,228.016785 
	C324.077759,241.314590 324.107391,254.614716 323.978821,267.912140 
	C323.942444,271.675995 325.469543,272.821899 329.052094,272.710449 
	C335.529022,272.508972 342.016724,272.654907 349.499939,272.656036 
z"/>
<path fill="#000000" opacity="1.000000" stroke="none" 
	d="
M141.013947,437.196228 
	C125.854607,437.000977 127.794525,439.196198 127.787430,424.524536 
	C127.738579,323.561096 127.741875,222.597626 127.763786,121.634178 
	C127.766457,109.335289 126.367065,110.860298 138.786957,110.829903 
	C162.611481,110.771584 186.437271,110.948036 210.260208,110.749290 
	C215.132065,110.708649 216.748734,112.329803 216.422287,117.075386 
	C216.080078,122.050217 216.118423,127.079391 216.406219,132.060791 
	C216.652176,136.317657 214.892715,137.435043 210.879028,137.393280 
	C194.553391,137.223404 178.223953,137.422134 161.898270,137.254074 
	C158.150024,137.215500 156.206299,138.163223 156.500763,142.195282 
	C156.633591,144.013962 156.409103,145.856033 156.408890,147.687500 
	C156.399017,232.989944 156.395279,318.292389 156.393555,403.594849 
	C156.393417,410.821350 156.402191,410.825714 163.421402,410.831329 
	C179.082382,410.843933 194.744888,410.975372 210.403397,410.783478 
	C214.899811,410.728394 216.756027,412.087219 216.420883,416.762665 
	C216.076294,421.569733 216.084259,426.437775 216.411057,431.246979 
	C216.721588,435.816711 215.094742,437.317078 210.484085,437.271545 
	C190.326736,437.072449 170.166229,437.193604 150.006866,437.198059 
	C147.175034,437.198669 144.343216,437.196838 141.013947,437.196228 
z"/>
<path fill="#000000" opacity="1.000000" stroke="none" 
	d="
M594.000000,110.815285 
	C603.831665,110.820396 613.163330,110.815338 622.494995,110.834686 
	C629.294800,110.848778 629.323853,110.863129 629.324097,117.852234 
	C629.327576,216.834564 629.322876,315.816895 629.318909,414.799225 
	C629.318665,420.798126 629.215149,426.798981 629.340881,432.795135 
	C629.407837,435.986938 628.167053,437.244598 624.938843,437.235474 
	C598.443787,437.160553 571.948364,437.144928 545.453369,437.219666 
	C541.674927,437.230316 540.526489,435.572784 540.643372,432.044434 
	C540.819824,426.717957 540.887085,421.371216 540.620972,416.052094 
	C540.416382,411.962982 542.281555,410.885193 545.969788,410.905273 
	C562.132996,410.993225 578.299438,410.779449 594.459351,411.027008 
	C599.184387,411.099365 600.756226,409.801086 600.748657,404.886841 
	C600.614319,317.735931 600.617249,230.584717 600.749756,143.433823 
	C600.757080,138.625854 599.393738,137.149750 594.562317,137.230957 
	C578.569824,137.499756 562.567810,137.179565 546.573914,137.403564 
	C541.955811,137.468246 540.318787,135.938141 540.627808,131.372711 
	C540.942200,126.728592 540.670959,122.045815 540.683777,117.380043 
	C540.701660,110.872612 540.712585,110.849083 547.508301,110.839508 
	C562.838867,110.817894 578.169434,110.821953 594.000000,110.815285 
z"/>
</svg>