<svg version="1.1" id="Layer_1" xmlns="http://www.w3.org/2000/svg" xmlns:xlink="http://www.w3.org/1999/xlink" x="0px" y="0px"
	 width="100%" viewBox="0 0 976 976" enable-background="new 0 0 976 976" xml:space="preserve">
<path fill="#000000" opacity="1.000000" stroke="none" 
	d="
M682.000000,673.240601 
	C660.842407,673.231384 640.183655,673.101135 619.528137,673.304382 
	C614.848328,673.350464 613.491516,671.725952 613.576050,667.227722 
	C613.810669,654.737610 613.785095,642.238342 613.593018,629.746826 
	C613.532593,625.814514 614.855530,624.531433 618.767639,624.587524 
	C631.759277,624.773621 644.756836,624.539856 657.748535,624.722961 
	C661.625854,624.777527 663.248901,623.472412 663.105652,619.579468 
	C662.940430,615.087463 663.049377,610.585144 663.049866,606.087341 
	C663.061096,511.962006 663.074585,417.836670 663.084900,323.711334 
	C663.085693,316.293213 663.076355,316.288971 655.622192,316.280396 
	C643.460876,316.266418 631.298035,316.145538 619.139099,316.311523 
	C615.066284,316.367126 613.536743,314.989105 613.599487,310.824982 
	C613.790283,298.166809 613.752686,285.502808 613.606873,272.843353 
	C613.565430,269.240082 614.745728,267.776276 618.472961,267.784851 
	C651.291687,267.860260 684.110718,267.846680 716.929443,267.761505 
	C720.320618,267.752716 721.489014,268.809296 721.557800,272.364685 
	C722.376770,314.670746 721.822266,356.979248 721.894409,399.285675 
	C722.004761,463.923767 722.172058,528.564026 721.738708,593.199585 
	C721.571228,618.172729 721.738892,643.146301 721.542114,668.118958 
	C721.507690,672.484497 719.928284,673.398926 715.982483,673.322693 
	C704.825317,673.106934 693.661316,673.242920 682.000000,673.240601 
z"/>
<path fill="#000000" opacity="1.000000" stroke="none" 
	d="
M304.143402,324.127472 
	C304.145294,421.937592 304.144287,519.267761 304.144806,616.597900 
	C304.144836,624.644226 304.149780,624.649353 312.353394,624.652466 
	C324.186340,624.656982 336.021362,624.777405 347.851135,624.583130 
	C351.809509,624.518188 353.507294,625.534180 353.428223,629.854919 
	C353.193512,642.683533 353.247528,655.520386 353.404449,668.351379 
	C353.449768,672.058777 352.105011,673.270203 348.454529,673.260681 
	C315.789154,673.174927 283.123352,673.183411 250.458023,673.285339 
	C246.678177,673.297119 245.313507,671.763916 245.643570,668.206909 
	C245.735535,667.215698 245.652069,666.208313 245.652069,665.208374 
	C245.651947,535.379150 245.651749,405.549988 245.653168,275.720795 
	C245.653259,267.801025 245.659424,267.798218 253.542053,267.801178 
	C284.207733,267.812622 314.873413,267.824127 345.539093,267.839874 
	C353.342133,267.843872 353.346893,267.851044 353.348175,275.864349 
	C353.350006,287.530640 353.154572,299.201538 353.437042,310.860901 
	C353.546570,315.381836 351.912964,316.544769 347.654114,316.466064 
	C335.492096,316.241272 323.323059,316.390778 311.156799,316.399200 
	C304.172028,316.404053 304.172028,316.409424 304.143402,324.127472 
z"/>
<path fill="#000000" opacity="1.000000" stroke="none" 
	d="
M449.314148,527.000000 
	C449.309113,541.498352 449.153625,555.499268 449.386017,569.493652 
	C449.459412,573.914490 447.959229,575.412903 443.631165,575.233276 
	C437.142639,574.963867 430.634766,575.079224 424.136658,575.157043 
	C420.993866,575.194702 419.449341,573.934753 419.674133,570.707947 
	C419.743439,569.713318 419.669952,568.709045 419.669922,567.709229 
	C419.668213,496.551056 419.665466,425.392853 419.669006,354.234680 
	C419.669403,346.666138 419.686615,346.663086 427.348999,346.659424 
	C432.681702,346.656860 438.027496,346.895782 443.343109,346.595734 
	C447.815460,346.343292 449.594330,347.746155 449.408081,352.473785 
	C449.075165,360.923065 449.314301,369.394897 449.314301,377.588623 
	C451.892029,379.019135 454.106415,378.568542 456.225433,378.575531 
	C474.389832,378.635437 492.555756,378.754547 510.718048,378.558624 
	C515.162354,378.510681 516.455139,380.033661 516.410950,384.333710 
	C516.229553,401.996429 516.447388,419.663300 516.257874,437.325836 
	C516.213318,441.476776 517.543213,442.856812 521.671448,442.740784 
	C536.057617,442.336426 533.870605,444.756775 533.927063,430.718903 
	C534.029480,405.222290 533.939331,379.724915 533.947754,354.227875 
	C533.950256,346.665558 533.978149,346.662689 541.288086,346.659729 
	C546.620789,346.657593 551.973511,346.950775 557.280273,346.580994 
	C561.963501,346.254639 563.785278,347.550415 563.526062,352.584015 
	C563.097961,360.894562 563.398132,369.242828 563.398560,377.575195 
	C563.402100,441.567780 563.362366,505.560486 563.509277,569.552734 
	C563.519470,573.987183 562.269104,575.465027 557.878052,575.225830 
	C552.062561,574.909241 546.216675,575.178589 540.384338,575.135925 
	C534.304993,575.091492 533.958923,574.751465 533.954712,568.517090 
	C533.933472,537.187378 533.940857,505.857666 533.932312,474.527954 
	C533.930298,467.306244 533.919006,467.244324 526.857605,467.306091 
	C514.426453,467.414795 516.440796,465.808624 516.361572,477.941620 
	C516.239746,496.605377 516.685852,515.280029 516.204285,533.932251 
	C515.718628,552.743286 511.431549,570.576721 499.266571,585.660522 
	C488.605957,598.879028 474.397430,606.170105 457.957306,608.868042 
	C430.271484,613.411499 404.261932,608.683594 380.522003,593.254944 
	C374.850189,589.568787 374.905914,589.499146 378.588928,584.103516 
	C380.748932,580.939148 383.214172,577.926147 384.944397,574.539673 
	C387.255096,570.017029 389.810822,570.244080 393.650635,572.660889 
	C407.068756,581.106628 421.879272,585.385986 437.661438,585.585266 
	C464.021729,585.918213 483.020264,568.802429 485.644714,542.470276 
	C488.012421,518.713867 486.169556,494.867096 486.686096,471.067413 
	C486.747498,468.237244 485.438110,467.250214 482.748810,467.267426 
	C472.917053,467.330292 463.082886,467.405029 453.253387,467.244965 
	C449.134766,467.177917 449.287231,469.691772 449.292145,472.509247 
	C449.323639,490.506104 449.311462,508.503082 449.314148,527.000000 
M469.498169,442.678650 
	C473.656464,442.679871 477.821594,442.534851 481.970886,442.728485 
	C485.314240,442.884460 486.789001,441.839600 486.728577,438.233978 
	C486.558563,428.090668 486.585449,417.941284 486.732086,407.797119 
	C486.780334,404.461426 485.730682,402.883484 482.218231,402.919189 
	C472.738464,403.015564 463.256683,402.986145 453.776367,402.915710 
	C450.709869,402.892914 449.226929,403.959991 449.267487,407.280060 
	C449.395447,417.757416 449.390808,428.237885 449.287140,438.715668 
	C449.256195,441.842529 450.657898,442.762238 453.530487,442.696930 
	C458.517731,442.583466 463.509583,442.673431 469.498169,442.678650 
z"/>
</svg>